g mj10
v 0.008790885 0.01348242 -0.02001703
v -0.008790866 0.01348243 -0.02001704
v -0.008790879 -0.01348061 -0.02001702
v 0.008790872 -0.01348062 -0.02001701
v -0.009255148 -0.01471337 -0.01864315
v 0.009255752 -0.01471338 -0.01864314
v 0.009937494 -0.01403897 -0.01864314
v 0.009733459 -0.01456982 -0.01709334
v 0.009937507 0.01404015 -0.01864316
v 0.009255767 0.01471518 -0.01864316
v 0.009733473 0.01457223 -0.01709336
v -0.009255134 0.01471519 -0.01864317
v -0.009937488 0.01404016 -0.01864317
v -0.009733453 0.01457224 -0.01709336
v -0.009937501 -0.01403896 -0.01864315
v -0.009733467 -0.01456981 -0.01709335
v -0.00879088 -0.01507929 -0.01692963
v -0.0102912 -0.01348061 -0.01692963
v -0.01029119 0.01348243 -0.01692965
v -0.008790865 0.01507988 -0.01692965
v 0.01029058 -0.01348062 -0.01692962
v 0.008790871 -0.01507929 -0.01692962
v -0.008790885 -0.01507927 0.01692964
v 0.008790866 -0.01507927 0.01692965
v 0.008790885 0.01507988 -0.01692964
v 0.00879088 0.0150799 0.01692963
v -0.00879087 0.0150799 0.01692963
v -0.01029119 0.01348243 -0.01692965
v 0.009070665 0.01464189 0.01877021
v 0.009733468 0.01457225 0.01709335
v 0.009738966 0.01397054 0.01877022
v 0.00879088 0.01348244 0.02001702
v -0.009070043 0.0146419 0.01877021
v -0.008790871 0.01348245 0.02001701
v -0.008790884 -0.01348059 0.02001703
v 0.008790866 -0.0134806 0.02001704
v -0.009738971 -0.01396929 0.01877023
v -0.009738958 0.01397055 0.01877021
v -0.009733458 0.01457226 0.01709334
v 0.009738953 -0.0139693 0.01877023
v 0.009070651 -0.01464066 0.01877023
v 0.009733454 -0.0145698 0.01709337
v -0.009070057 -0.01464065 0.01877023
v -0.009733472 -0.01456979 0.01709336
v -0.008790885 -0.01507927 0.01692964
v -0.01029121 -0.01348059 0.01692964
v -0.01029119 0.01348245 0.01692962
v 0.01029058 -0.0134806 0.01692965
v 0.008790866 -0.01507927 0.01692965
v 0.01029059 0.01348244 0.01692964
v 0.01029059 0.01348244 0.01692964
v 0.0102906 0.01348242 -0.01692964
v 0.01029058 -0.01348062 -0.01692962
v -0.01029119 0.01348245 0.01692962
v -0.01029121 -0.01348059 0.01692964
v -0.0102912 -0.01348061 -0.01692963
v -0.01029119 0.01348243 -0.01692965
v 0.01029058 -0.0134806 0.01692965
v 0.01029059 0.01348244 0.01692964
v 0.0102906 0.01348242 -0.01692964
v 0.01029058 -0.01348062 -0.01692962
v -0.01029121 -0.01348059 0.01692964
v -0.009733472 -0.01456979 0.01709336
v 0.01029058 -0.0134806 0.01692965
v 0.009733454 -0.0145698 0.01709337
vt 0.6947389 0.07791908
vt 0.6947389 0.01024292
vt 0.8368589 0.01024292
vt 0.8368589 0.07791908
vt 0.840726 0.01024292
vt 0.840726 0.07888588
vt 0.8387924 0.08081949
vt 0.8416928 0.08081949
vt 0.6937721 0.08081949
vt 0.6899049 0.07888588
vt 0.6889381 0.08081949
vt 0.6899049 0.01024292
vt 0.6937721 0.007342517
vt 0.6889381 0.007342517
vt 0.8387924 0.007342517
vt 0.8416928 0.007342517
vt 0.8436265 0.01024292
vt 0.8397592 0.005408913
vt 0.6918385 0.005408913
vt 0.6870044 0.01024292
vt 0.8397592 0.08371989
vt 0.8436265 0.07791908
vt 0.9886467 0.01024292
vt 0.9886467 0.07791908
vt 0.6870044 0.07791908
vt 0.5419842 0.07791908
vt 0.5419842 0.01024292
vt 0.6918385 0.005408913
vt 0.5381169 0.07888588
vt 0.5400505 0.08081949
vt 0.5371501 0.08081949
vt 0.5342498 0.07791908
vt 0.5381169 0.01024292
vt 0.5342498 0.01024292
vt 0.3921298 0.01024292
vt 0.3921298 0.07791908
vt 0.391163 0.007342517
vt 0.5371501 0.007342517
vt 0.5400505 0.007342517
vt 0.391163 0.08081949
vt 0.3892294 0.07888588
vt 0.3872958 0.08081949
vt 0.3892294 0.01024292
vt 0.3872958 0.007342517
vt 0.3853622 0.01024292
vt 0.3892294 0.005408913
vt 0.5381169 0.005408913
vt 0.3892294 0.08371989
vt 0.3853622 0.07791908
vt 0.5381169 0.08371989
vt 0.5381169 0.08371989
vt 0.6918385 0.08371989
vt 0.8397592 0.08371989
vt 0.3776278 0.1523629
vt 0.2722463 0.1523629
vt 0.2722463 0.005408913
vt 0.3776278 0.005408913
vt 0.008054404 0.8091949
vt 0.09700021 0.8091949
vt 0.09700021 0.6825439
vt 0.008054404 0.6825439
vt 0.9944476 0.005408913
vt 0.9905804 0.007342517
vt 0.9944476 0.08371989
vt 0.9905804 0.08081949
vn 0.4245764 0.2731803 -0.863196
vn -0.3421037 0.5326625 -0.7741031
vn -0.4513988 -0.2573973 -0.8543921
vn 0.3229799 -0.5124398 -0.7956692
vn -0.3402347 -0.9116277 -0.2305979
vn 0.3226792 -0.9352878 -0.1453103
vn 0.9214572 -0.3294167 -0.205916
vn 0.7446175 -0.6666545 -0.03341437
vn 0.9334853 0.3301319 -0.140065
vn 0.3278247 0.9252464 -0.1909194
vn 0.667913 0.7441714 0.0100551
vn -0.3263495 0.9388242 -0.110024
vn -0.9236047 0.3354553 -0.1855375
vn -0.7442057 0.6678761 0.009965875
vn -0.9407285 -0.3190101 -0.115162
vn -0.6837582 -0.7296627 0.008195867
vn -0.1975271 -0.9800923 -0.02005083
vn -0.974223 -0.2254486 0.007909706
vn -0.9820074 0.1886725 -0.008004807
vn -0.2488103 0.9685444 0.003903959
vn 0.9833741 -0.1812754 -0.01069912
vn 0.2361393 -0.9715461 -0.01834025
vn -0.2506401 -0.9680196 0.01084823
vn 0.1826106 -0.9828438 0.02591622
vn 0.1812877 0.9833704 -0.01083634
vn 0.2344279 0.9721273 0.003480704
vn -0.1960873 0.9805735 0.005048362
vn -0.9820074 0.1886726 -0.008004808
vn 0.3244615 0.9321646 0.1606048
vn 0.7410014 0.671106 0.02310253
vn 0.913111 0.3323677 0.2361357
vn 0.2820369 0.4250699 0.8600993
vn -0.3402478 0.9115893 0.2307299
vn -0.5806432 0.3448778 0.7375045
vn -0.2901942 -0.4164577 0.8615976
vn 0.5508074 -0.3252926 0.7686326
vn -0.9244557 -0.3137825 0.2166153
vn -0.9321814 0.3243926 0.1606466
vn -0.6758665 0.7369702 0.00891682
vn 0.9284266 -0.3122749 0.201267
vn 0.3338661 -0.9085583 0.2511082
vn 0.6754965 -0.7372558 0.01258854
vn -0.3354409 -0.9236361 0.1854069
vn -0.7551556 -0.6555442 -0.001275322
vn -0.2506401 -0.9680196 0.01084823
vn -0.9833704 -0.1812877 0.0108363
vn -0.9721423 0.2343653 0.003510799
vn 0.973228 -0.2287925 0.02194039
vn 0.1826106 -0.9828438 0.02591622
vn 0.9815027 0.1900552 0.02305489
vn 0.9815027 0.1900552 0.02305489
vn 0.9721469 0.2343478 -0.003379758
vn 0.9833741 -0.1812754 -0.01069912
vn -0.9721423 0.2343653 0.003510799
vn -0.9833704 -0.1812877 0.0108363
vn -0.974223 -0.2254486 0.007909706
vn -0.9820074 0.1886725 -0.008004807
vn 0.973228 -0.2287925 0.02194039
vn 0.9815027 0.1900552 0.02305489
vn 0.9721469 0.2343478 -0.003379758
vn 0.9833741 -0.1812754 -0.01069912
vn -0.9833704 -0.1812877 0.0108363
vn -0.7551556 -0.6555442 -0.001275322
vn 0.973228 -0.2287925 0.02194039
vn 0.6754965 -0.7372558 0.01258854
g mj10_0
f 3/3/3 2/2/2 1/1/1
f 4/4/4 3/3/3 1/1/1
f 5/5/5 3/3/3 4/4/4
f 6/6/6 5/5/5 4/4/4
f 7/7/7 4/4/4 1/1/1
f 6/6/6 4/4/4 7/7/7
f 6/6/6 7/7/7 8/8/8
f 9/9/9 7/7/7 1/1/1
f 10/10/10 1/1/1 2/2/2
f 9/9/9 1/1/1 10/10/10
f 10/10/10 11/11/11 9/9/9
f 12/12/12 10/10/10 2/2/2
f 13/13/13 2/2/2 3/3/3
f 12/12/12 2/2/2 13/13/13
f 13/13/13 14/14/14 12/12/12
f 15/15/15 13/13/13 3/3/3
f 15/15/15 3/3/3 5/5/5
f 15/15/15 5/5/5 16/16/16
f 5/5/5 17/17/17 16/16/16
f 17/17/17 5/5/5 6/6/6
f 16/16/16 18/18/18 15/15/15
f 13/13/13 19/19/19 14/14/14
f 14/14/14 20/20/20 12/12/12
f 7/7/7 21/21/21 8/8/8
f 8/8/8 22/22/22 6/6/6
f 17/17/17 22/22/22 23/23/23
f 17/17/17 23/23/23 16/16/16
f 22/22/22 24/24/24 23/23/23
f 10/10/10 25/25/25 11/11/11
f 25/25/25 10/10/10 12/12/12
f 20/20/20 25/25/25 12/12/12
f 25/25/25 20/20/20 26/26/26
f 11/11/11 25/25/25 26/26/26
f 20/20/20 27/27/27 26/26/26
f 22/22/22 17/17/17 6/6/6
f 28/28/28 13/13/13 15/15/15
f 18/18/18 28/28/28 15/15/15
f 26/26/26 27/27/27 29/29/29
f 30/30/30 26/26/26 29/29/29
f 30/30/30 29/29/29 31/31/31
f 30/30/30 11/11/11 26/26/26
f 29/29/29 32/32/32 31/31/31
f 29/29/29 33/33/33 32/32/32
f 27/27/27 33/33/33 29/29/29
f 33/33/33 34/34/34 32/32/32
f 34/34/34 35/35/35 32/32/32
f 35/35/35 36/36/36 32/32/32
f 31/31/31 32/32/32 36/36/36
f 37/37/37 35/35/35 34/34/34
f 38/38/38 37/37/37 34/34/34
f 38/38/38 34/34/34 33/33/33
f 39/39/39 38/38/38 33/33/33
f 33/33/33 27/27/27 39/39/39
f 40/40/40 31/31/31 36/36/36
f 41/41/41 36/36/36 35/35/35
f 40/40/40 36/36/36 41/41/41
f 42/42/42 40/40/40 41/41/41
f 43/43/43 41/41/41 35/35/35
f 43/43/43 35/35/35 37/37/37
f 44/44/44 43/43/43 37/37/37
f 44/44/44 45/45/45 43/43/43
f 37/37/37 46/46/46 44/44/44
f 46/46/46 37/37/37 38/38/38
f 39/39/39 47/47/47 38/38/38
f 47/47/47 46/46/46 38/38/38
f 42/42/42 48/48/48 40/40/40
f 41/41/41 49/49/49 42/42/42
f 49/49/49 41/41/41 43/43/43
f 45/45/45 49/49/49 43/43/43
f 48/48/48 50/50/50 40/40/40
f 50/50/50 31/31/31 40/40/40
f 39/39/39 14/14/14 47/47/47
f 20/20/20 14/14/14 39/39/39
f 27/27/27 20/20/20 39/39/39
f 14/14/14 19/19/19 47/47/47
f 31/31/31 51/51/51 30/30/30
f 51/51/51 52/52/52 30/30/30
f 52/52/52 11/11/11 30/30/30
f 11/11/11 52/52/52 9/9/9
f 52/52/52 53/53/53 9/9/9
f 53/53/53 7/7/7 9/9/9
f 56/56/56 55/55/55 54/54/54
f 57/57/57 56/56/56 54/54/54
f 60/60/60 59/59/59 58/58/58
f 61/61/61 60/60/60 58/58/58
f 63/63/63 62/62/62 18/18/18
f 16/16/16 63/63/63 18/18/18
f 23/23/23 63/63/63 16/16/16
f 8/8/8 21/21/21 64/64/64
f 65/65/65 8/8/8 64/64/64
f 22/22/22 8/8/8 65/65/65
f 24/24/24 22/22/22 65/65/65
